<mxfile host="app.diagrams.net" agent="Mozilla/5.0 (Windows NT 10.0; Win64; x64) AppleWebKit/537.36 (KHTML, like Gecko) Chrome/138.0.0.0 Safari/537.36 Edg/138.0.0.0" border="50" scale="3" compressed="false" locked="false" version="27.2.0">
  <diagram name="Blank" id="YmL12bMKpDGza6XwsDPr">
    <mxGraphModel dx="3258" dy="1916" grid="0" gridSize="10" guides="1" tooltips="1" connect="1" arrows="1" fold="1" page="0" pageScale="1" pageWidth="827" pageHeight="1169" background="none" math="1" shadow="0">
      <root>
        <mxCell id="X5NqExCQtvZxIxQ7pmgY-0" />
        <mxCell id="1" parent="X5NqExCQtvZxIxQ7pmgY-0" />
        <mxCell id="4mpuK8sIVeSPlgI3GVmC-2" value="" style="edgeStyle=orthogonalEdgeStyle;rounded=0;orthogonalLoop=1;jettySize=auto;html=1;" edge="1" parent="1" source="kV3aUTZvIW2G0HY2hkWI-1" target="4mpuK8sIVeSPlgI3GVmC-1">
          <mxGeometry relative="1" as="geometry" />
        </mxCell>
        <mxCell id="4mpuK8sIVeSPlgI3GVmC-6" value="" style="edgeStyle=orthogonalEdgeStyle;rounded=0;orthogonalLoop=1;jettySize=auto;html=1;" edge="1" parent="1" source="kV3aUTZvIW2G0HY2hkWI-1" target="4mpuK8sIVeSPlgI3GVmC-5">
          <mxGeometry relative="1" as="geometry" />
        </mxCell>
        <mxCell id="kV3aUTZvIW2G0HY2hkWI-1" value="什么是HTML" style="rounded=0;whiteSpace=wrap;html=1;" parent="1" vertex="1">
          <mxGeometry x="-1181" y="-586" width="120" height="60" as="geometry" />
        </mxCell>
        <mxCell id="4mpuK8sIVeSPlgI3GVmC-4" value="" style="edgeStyle=orthogonalEdgeStyle;rounded=0;orthogonalLoop=1;jettySize=auto;html=1;" edge="1" parent="1" source="4mpuK8sIVeSPlgI3GVmC-1" target="4mpuK8sIVeSPlgI3GVmC-3">
          <mxGeometry relative="1" as="geometry" />
        </mxCell>
        <mxCell id="4mpuK8sIVeSPlgI3GVmC-1" value="" style="shape=waypoint;sketch=0;size=6;pointerEvents=1;points=[];fillColor=default;resizable=0;rotatable=0;perimeter=centerPerimeter;snapToPoint=1;rounded=0;" vertex="1" parent="1">
          <mxGeometry x="-931" y="-566" width="20" height="20" as="geometry" />
        </mxCell>
        <mxCell id="4mpuK8sIVeSPlgI3GVmC-3" value="" style="whiteSpace=wrap;html=1;sketch=0;pointerEvents=1;resizable=0;rounded=0;" vertex="1" parent="1">
          <mxGeometry x="-881" y="-586" width="120" height="60" as="geometry" />
        </mxCell>
        <mxCell id="4mpuK8sIVeSPlgI3GVmC-8" value="" style="edgeStyle=orthogonalEdgeStyle;rounded=0;orthogonalLoop=1;jettySize=auto;html=1;" edge="1" parent="1" source="4mpuK8sIVeSPlgI3GVmC-5" target="4mpuK8sIVeSPlgI3GVmC-7">
          <mxGeometry relative="1" as="geometry" />
        </mxCell>
        <mxCell id="4mpuK8sIVeSPlgI3GVmC-5" value="什么是HTML" style="rounded=0;whiteSpace=wrap;html=1;" vertex="1" parent="1">
          <mxGeometry x="-1036" y="-436" width="120" height="60" as="geometry" />
        </mxCell>
        <mxCell id="4mpuK8sIVeSPlgI3GVmC-7" value="什么是HTML" style="rounded=0;whiteSpace=wrap;html=1;" vertex="1" parent="1">
          <mxGeometry x="-794" y="-371" width="120" height="60" as="geometry" />
        </mxCell>
      </root>
    </mxGraphModel>
  </diagram>
</mxfile>
